<svg id="SvgjsSvg1011" width="288" height="288" xmlns="http://www.w3.org/2000/svg" version="1.1" xmlns:xlink="http://www.w3.org/1999/xlink" xmlns:svgjs="http://svgjs.com/svgjs"><rect id="SvgjsRect1017" width="288" height="288" rx="0" ry="0" transform="matrix(0.9999999999999999,0,0,0.9999999999999999,2.842170943040401e-14,2.842170943040401e-14)" fill="#5893df"></rect><defs id="SvgjsDefs1012"></defs><g id="SvgjsG1013" transform="matrix(0.73,0,0,0.73,39.32712312698365,38.88000308990479)"><svg xmlns="http://www.w3.org/2000/svg" viewBox="0 0 20 24" width="288" height="288"><path d="m17.12 21.857h-14.977v-6.428h-2.143v8.571h19.259v-8.571h-2.139zm-12.616-7.018.442-2.102 10.486 2.21-.442 2.09zm1.379-5.009.898-1.955 9.71 4.54-.898 1.942zm2.692-4.768 1.366-1.647 8.218 6.87-1.366 1.647zm5.313-5.062 6.388 8.585-1.716 1.286-6.386-8.585zm-9.616 19.701v-2.13h10.714v2.13z" fill="#ffffff" class="color000 svgShape"></path></svg></g></svg>